<svg id="maestro" xmlns="http://www.w3.org/2000/svg" xmlns:xlink="http://www.w3.org/1999/xlink" viewBox="0 0 400 245">
	<g>
		<path d="M1,136c0-8,0-16,0-24c1-0.7,0.8-1.7,1-2.7C9,63,33.8,29.8,77.4,12.7c43.2-16.9,83.7-9.4,120,19.5c3,2.4,4.4,2.3,7.2-0.1
			C270.4-23.2,372,7.8,396.2,90.3c2.1,7.2,2.8,14.6,4.8,21.7c0,8,0,16,0,24c-1.8,2.6-1.2,5.8-1.8,8.6c-9,44.5-34.3,75.9-76.8,91.5
			c-42.9,15.8-82.8,7.9-118.4-20.9c-2.3-1.9-3.5-2.1-5.9-0.1c-24.4,20.4-52.6,30.2-84.4,28.2c-54.6-3.5-97.8-41-110-94.4
			C2.6,144.7,2.8,140.1,1,136z M106.1,113.6c0.4,0.1,0.8,0.2,1.2,0.3c-1.8,9.6-3.6,19.2-5.4,28.9c-2,10.7-2,10.6,9,10.2
			c2.6-0.1,3.5-1.1,3.9-3.4c3.3-17.1,6.6-34.3,10-51.4c0.5-2.4-0.2-3.2-2.7-3.2c-5.2,0.1-10.3,0.3-15.5-0.1c-3.5-0.2-4.9,1.2-6.2,4.2
			c-4.1,9.9-8.6,19.6-13.5,30.6c-0.3-1.9-0.5-2.5-0.5-3.1c-0.2-9-0.5-18-0.6-27c0-3.1-0.8-4.9-4.5-4.6c-4.6,0.3-9.3,0.3-14,0
			c-3.1-0.2-4.2,0.9-4.8,4c-3,16.5-6.2,33-9.5,49.5c-0.6,3-0.3,5,3.5,4.4c1.5-0.2,3-0.2,4.5,0c3,0.4,4.5-0.7,4.9-3.9
			c0.8-5.6,2-11.1,3.1-16.7c1.3-6.7,2.7-13.3,4-20c1.4,12.1,2.1,24,2.8,36c0.1,1.4-0.5,3.1,0.8,4.2c2.9,2.3,12.4-0.4,14-3.9
			C95.9,136.9,101,125.2,106.1,113.6z M307.8,132.1c0,13.4,7.2,21.1,20.6,21.8c18.9,1.1,30.2-10.2,29.6-29.6
			c-0.3-9.2-5.6-16.5-14.4-18.7C324.2,100.7,307.4,112.4,307.8,132.1z M128.8,117.5c5.5-1.5,11-1.8,16.5-1.6c1.7,0.1,3.3,0.1,4.8,1
			c1.7,1,2.1,2.5,1.8,4.3c-0.3,2.3-2.1,1.8-3.4,1.7c-7.1-0.3-14,0.1-20.2,4.1c-6.2,4-8.9,11.6-6.6,18.3c2.1,6.2,7.1,8.7,15.3,8
			c4.1-0.3,7.6-2.1,10.7-4.3c1.5,1.2-0.2,4.1,2.6,3.8c3.2-0.3,6.6,1.1,9.6-0.9c0.3-0.2,0.4-0.9,0.5-1.4c1.3-10.5,4.5-20.8,4.9-31.5
			c0.3-7-3-11.1-9.8-13.1c-5.4-1.6-10.9-1.5-16.3-0.5c-11.4,2.1-8.7,0.2-10.7,11.1C128.3,116.6,128.5,116.7,128.8,117.5z
			 M208.5,140.3c-5.7,1.8-11.1,3.1-16.6,2.6c-3.5-0.4-7-1-9-4.4c-2-3.5-1.1-5.2,2.8-5.3c7-0.1,14,0,21,0c1.4,0,2.8,0.3,3.8-1.5
			c5.3-10.1-0.7-23.9-11.8-26.3c-9.5-2-18,0.1-24.2,8c-6.8,8.8-8.7,18.8-4.3,29.1c3.8,9.2,12.4,10.6,21.2,11c1.3,0.1,2.7,0.1,4,0
			C208.3,151.9,206.4,153.8,208.5,140.3z M224.6,153.5c4.7-0.3,9.9-0.2,14.8-2.3c5.8-2.4,8.2-7.1,8.4-13c0.2-5.5-2.2-9.6-7.2-12.1
			c-2.1-1-4.2-1.9-6.4-2.9c-1.7-0.8-3.5-1.7-3.1-4c0.4-2.4,2.4-3.1,4.5-3.2c2.7-0.2,5.3-0.1,8,0c3.9,0.1,7.9-5.7,6.4-9.4
			c-0.4-0.9-1.2-1.2-2-1.2c-8.1-0.6-16.3-1.7-24,2.1c-5.1,2.5-7.5,6.9-7.8,12.5c-0.2,5.4,2.5,9.2,7,11.8c2.3,1.3,4.8,2.2,7.2,3.4
			c1.8,0.9,3.8,2,3.2,4.4c-0.5,2.3-2.5,3.2-4.5,3.3c-4.2,0.3-8.3,0.5-12.4-0.7c-3.2-1-4.3,0.1-4.8,3.4c-1.1,7.2-1.3,7.1,6.3,7.6
			C220.2,153.2,222.2,153.4,224.6,153.5z M266.5,95c-7.1,0-7.1,0-8.4,6.8c-0.6,3.3-1.2,6.5-1.8,9.8c-1.8,10.3-4,20.6-5.2,31
			c-0.8,6.9,3.2,10.6,10.4,11.2c8.5,0.6,10.6-1,12-8.4c0.5-2.8-0.2-3.5-2.9-3.2c-4.2,0.3-5.7-1.8-4.9-5.9c1.1-5.5,2.1-11.1,3.1-16.7
			c0.2-1.2,0.6-2.6,2-2.3c6.7,1.2,6.3-3.7,7.1-7.8c0.6-2.9-0.1-4.1-3.1-3.6c-2.9,0.4-3.5-1.1-2.9-3.5c0.3-1.3,0.5-2.6,0.8-3.9
			c0.7-2.6-0.2-3.7-2.9-3.4C268.8,95.1,267.7,95,266.5,95z M296.9,112.3c2.4-6.1,0-7.1-4.1-6.5c-0.8,0.1-1.7,0.1-2.5,0
			c-3.6-0.5-5.2,0.7-5.8,4.6c-1.8,11.3-4.1,22.6-6.2,33.9c-1.6,8.6-1.6,8.3,7.2,8.7c4.5,0.2,6-1.3,6.6-5.6c1.1-7.7,2.5-15.4,5.6-22.7
			c1.3-3.1,3.2-5.9,6.9-5.5c3.7,0.4,5-1.4,5.7-4.5c0.4-1.4,1.2-2.8,1.6-4.2c0.4-1.4,2-2.8,0.8-4.1c-1.3-1.4-3.3-1.2-5.2-0.9
			C303.5,106,300.8,108.8,296.9,112.3z M168.1,85.7c22.4,0,43.8,0,65.5,0c-0.5-4-2.4-7.3-3.8-10.9c-0.7-1.8-2.1-1.8-3.6-1.8
			c-16.3,0-32.7,0-49,0c-1.5,0-2.9,0-3.7,1.7C171.9,78.2,170.2,81.5,168.1,85.7z M173.4,174.8c1,3.9,3.2,6.9,4.8,10.1
			c1,2.1,2.6,2.7,4.8,2.7c12-0.1,23.9,0,35.9,0c1.7,0,3.3,0.1,4.3-1.8c1.9-3.5,4.3-6.7,5.3-10.9C210.1,174.8,191.9,174.8,173.4,174.8
			z M181.4,60.5c13.3,0,25.2,0,37.1,0c1.5,0,3.1,0.1,2-2.5c-3.1-7.2-7.9-10.5-15.8-10.5c-3.8,0-7.6,0-11.4,0c-1.7,0-3.3,0.1-4.3,1.8
			C186.7,52.7,184.4,56.1,181.4,60.5z M212.6,200.2c-8,0-15.3,0-23.2,0c3.1,4.5,6.7,7.6,10,11c1.3,1.3,2.2,1,3.3-0.1
			C206,207.7,209.6,204.6,212.6,200.2z"/>
		<path d="M392.8,190.6c-0.4,2.3-1.7,3.6-4.1,3.5c-2.2-0.1-3.4-1.5-3.4-3.6c0-2.3,1.3-3.8,3.7-3.7
			C391.4,186.9,392.5,188.4,392.8,190.6z"/>
		<path d="M343,126.6c-0.3,5.5-1.7,10.6-6.7,14.1c-5.4,3.7-11.1,1.4-12.3-5.1c-0.9-4.9-0.2-9.6,2.4-13.9c2.7-4.5,7.3-6.8,11.2-5.4
			C342.4,117.9,343,122.1,343,126.6z"/>
		<path d="M144.7,131.8c5.4,0,5.9,0.6,4,5.1c-1.4,3.4-3.7,5.9-7.6,6.4c-2.6,0.3-5.2,0.1-6.1-2.9c-0.9-2.8-0.1-5.3,2.6-6.9
			C140,132.1,142.6,131.7,144.7,131.8z"/>
		<path d="M191.3,123.8c-0.7,0-1.3,0.1-2,0c-1.8-0.4-4.6,1.2-5.2-1.2c-0.6-2.3,1.5-4.2,3.4-5.6c2.3-1.7,4.9-1.9,7.6-1.2
			c3,0.8,4.2,3.1,3.8,6.1c-0.4,3.3-3,1.5-4.7,1.9C193.3,124,192.3,123.8,191.3,123.8z"/>
	</g>
</svg>
