<svg id="mastercard" xmlns="http://www.w3.org/2000/svg" xmlns:xlink="http://www.w3.org/1999/xlink" viewBox="0 0 1846.2 1116.1">
	<path d="M441.3,596.2h-13c-31.3,0-47,10.7-47,32c0,14.7,6.7,22,20,22c11.3,0,20.7-5,28-15S440.6,612.2,441.3,596.2z M836.3,560.2h62
		v-3c0.7-2.7,0.8-4.8,0.5-6.5s-0.7-4-1-7s-1-5.7-2-8s-2.5-4.5-4.5-6.5s-4.5-3.7-7.5-5s-6.8-2-11.5-2
		C853.6,522.2,841.6,534.9,836.3,560.2z M1376.3,596.2h-12c-32,0-48,10.7-48,32c0,14.7,6.7,22,20,22c11.3,0,20.7-5,28-15
		S1375.6,612.2,1376.3,596.2z M1695.3,570.2c0-27.3-10-41-30-41c-12.7,0-23,6.7-31,20s-12,30.3-12,51c0,28,9.3,42,28,42
		c13.3,0,24.2-6.7,32.5-20S1695.3,591.6,1695.3,570.2z M250.3,429.2h87l-44,262h-56l32-201l-71,201h-39l-4-200l-34,200h-53l44-262h81
		l2,163L250.3,429.2z M503.3,536.2c0,4-1.3,18-4,42c-10.7,67.3-16.3,105-17,113h-47l1-22c-13.3,17.3-32.7,26-58,26
		c-15.3,0-27.8-5.3-37.5-16c-9.7-10.7-14.5-24.7-14.5-42c0-26,8.7-46.2,26-60.5s41.7-21.5,73-21.5c9.3,0,17,0.3,23,1
		c0-2,0.2-3.8,0.5-5.5s0.7-3.2,1-4.5s0.5-2.3,0.5-3c0-13.3-12-20-36-20c-19.3,0-39,3.3-59,10c0-2.7,2.3-18.7,7-48
		c25.3-7.3,47.7-11,67-11C478.6,474.2,503.3,494.9,503.3,536.2z M659.3,478.2l-8,49c-14.7-2-28.3-3-41-3c-18,0-27,5.7-27,17
		c0,5.3,1.5,9.3,4.5,12s10.2,6.3,21.5,11c26.7,12.7,40,32.7,40,60c0,48-29,71.7-87,71c-22.7,0-42-2-58-6c0-1.3,2.3-17.7,7-49
		c19.3,5.3,36.3,8,51,8c21.3,0,32-6.3,32-19c0-4.7-1.5-8.5-4.5-11.5s-10.2-7.2-21.5-12.5c-28.7-13.3-43-33-43-59c0-48,28-72,84-72
		C629.3,474.2,645.9,475.6,659.3,478.2z M747.3,478.2h28l-7,52h-29c-1.3,11.3-3.5,24.8-6.5,40.5s-5.3,28.5-7,38.5s-2.5,16-2.5,18
		c0,10.7,6.3,16,19,16c5.3,0,10.7-0.7,16-2l-8,47c-14,4.7-27.3,7-40,7c-28.7,0-43.7-15.7-45-47c0-8,2.7-26.7,8-56
		c2-13.3,10.3-62,25-146h55L747.3,478.2z M950.3,551.2c0,15.3-2.3,32.7-7,52h-111c-2,14.7,1.3,25.7,10,33s21.3,11,38,11
		c20,0,39.3-4.7,58-14l-9,54c-20,5.3-39,8-57,8c-63.3,0-95-31.7-95-95c0-36.7,9.2-66.8,27.5-90.5c18.3-23.7,41.5-35.5,69.5-35.5
		c23.3,0,41.8,7,55.5,21S950.3,527.9,950.3,551.2z M1089.3,477.2c-8.7,15.3-16,36-22,62c-14.7-1.3-25,6.7-31,24s-14.3,60-25,128h-56
		l3-14c14.7-86.7,24.3-153,29-199h51l-3,33c9.3-14,17.8-23.8,25.5-29.5S1077.9,474.6,1089.3,477.2z M1276.3,436.2l-9,57
		c-18.7-9.3-35.3-14-50-14c-20.7,0-37.7,9.2-51,27.5c-13.3,18.3-20,41.8-20,70.5c0,20,4.5,35.7,13.5,47s21.8,17,38.5,17
		c14,0,30-4.3,48-13l-10,59c-18.7,5.3-35.3,8-50,8c-30,0-53.8-10.2-71.5-30.5s-26.5-47.8-26.5-82.5c0-46.7,11.8-84.8,35.5-114.5
		s54.2-44.5,91.5-44.5C1232.6,423.2,1252.9,427.6,1276.3,436.2z M1438.3,536.2c0,12-1.3,26-4,42c-8.7,52.7-14.3,90.3-17,113h-46l1-22
		c-13.3,17.3-33,26-59,26c-15.3,0-27.7-5.3-37-16c-9.3-10.7-14-24.7-14-42c0-26,8.5-46.2,25.5-60.5s41.2-21.5,72.5-21.5
		c10,0,17.7,0.3,23,1c1.3-4.7,2-9,2-13c0-13.3-12-20-36-20c-19.3,0-39,3.3-59,10c0-2.7,2.7-18.7,8-48c25.3-7.3,47.7-11,67-11
		C1413.9,474.2,1438.3,494.9,1438.3,536.2z M1579.3,477.2c-9.3,16-16.3,36.7-21,62c-15.3-1.3-25.8,6.3-31.5,23s-14.2,59.7-25.5,129
		h-56l3-14c12.7-69.3,22.3-135.7,29-199h52c0,7.3-1.3,18.3-4,33c10-14,18.8-23.8,26.5-29.5S1568.6,474.6,1579.3,477.2z M1720.3,429.2
		h56l-43,262h-53l3-19c-15.3,15.3-32.7,23-52,23c-20.7,0-37.2-8-49.5-24s-18.5-37.3-18.5-64c0-35.3,9.2-66,27.5-92
		c18.3-26,39.8-39,64.5-39c20.7,0,38.3,9.7,53,29L1720.3,429.2z M1831.3,559.2c0-98.7-24.2-189.7-72.5-273s-114.3-149.3-198-198
		s-174.8-73-273.5-73c-120.7,0-230,36.7-328,110c84.7,77.3,141.7,172,171,284h-50c-29.3-100-82-184.3-158-253
		c-76,68.7-128.7,153-158,253h-50c29.3-112,86.3-206.7,171-284c-98-73.3-207.3-110-328-110c-98.7,0-189.8,24.3-273.5,73
		s-149.7,114.7-198,198s-72.5,174.3-72.5,273s24.2,189.7,72.5,273s114.3,149.3,198,198s174.8,73,273.5,73c120.7,0,230-36.7,328-110
		c-80-74-135-162-165-264h50c30.7,92,81.3,169.7,152,233c70.7-63.3,121.3-141,152-233h50c-30,102-85,190-165,264
		c98,73.3,207.3,110,328,110c98.7,0,189.8-24.3,273.5-73s149.7-114.7,198-198S1831.3,657.9,1831.3,559.2z"/>
</svg>
