<svg id="sberbank" xmlns="http://www.w3.org/2000/svg" xmlns:xlink="http://www.w3.org/1999/xlink" viewBox="0 0 31.7 32">
	<g>
		<path d="M0.1,14.3c2.4,1.4,4.7,2.7,7,4c0.7,0.4,1.5,0.9,2.2,1.3c0.2,0.1,0.5,0.1,0.7,0c3.7-2.1,7.5-4.3,11.2-6.4
			c2.8-1.6,5.5-3.2,8.3-4.8c0.2-0.1,0.4-0.2,0.5-0.2c3.1,5.8,2.2,13.8-3.7,18.9c-5.7,5-13.6,5.3-19.7,0.9c-3.1-2.2-5.1-5.3-6-9
			C0.1,17.4-0.1,15.9,0.1,14.3z"/>
		<path d="M28.1,5.1c0.3,0.4,0.6,0.7,0.9,1.2c-1.2,0.7-2.3,1.3-3.3,1.9c-3.1,1.8-6.2,3.6-9.3,5.4c-2.1,1.2-4.3,2.5-6.4,3.7
			c-0.2,0.1-0.5,0.1-0.6,0c-2-1.1-3.9-2.2-5.9-3.4c-0.8-0.5-1.6-1-2.4-1.4c-0.6-0.3-0.7-0.7-0.5-1.2c0.1-0.2,0.1-0.4,0.2-0.7
			C2.2,11.4,3.6,12.2,5,13c1.4,0.8,2.9,1.7,4.3,2.5c0.2,0.1,0.6,0.1,0.8,0c5-2.9,10.1-5.8,15.1-8.7C26.1,6.3,27,5.7,28.1,5.1z"/>
		<path d="M1.4,8.7C1.6,8.2,1.8,7.8,2,7.4c0.9,0.5,1.8,1,2.7,1.6c1.5,0.8,2.9,1.7,4.4,2.5c0.3,0.2,0.6,0.2,0.9,0
			c3.8-2.2,7.7-4.4,11.5-6.6c1.1-0.7,2.3-1.3,3.4-2c0.4-0.2,0.6-0.2,0.9,0.1c0.2,0.2,0.5,0.4,0.8,0.7c-1.4,0.8-2.7,1.5-3.9,2.3
			c-2.8,1.6-5.6,3.2-8.5,4.9c-1.4,0.8-2.8,1.7-4.3,2.4c-0.2,0.1-0.6,0.1-0.8,0C6.6,11.7,4,10.3,1.4,8.7z"/>
		<path d="M23.6,1.3c-0.7,0.5-1.3,0.8-2,1.2c-2.9,1.7-5.8,3.3-8.7,5c-1,0.6-2,1.1-3,1.7c-0.2,0.1-0.5,0.1-0.7,0
			C7.3,8.1,5.3,7,3.3,5.8c-0.1,0-0.1-0.1-0.2-0.1c0.3-0.4,0.6-0.7,1-1.1c0.7,0.4,1.3,0.7,2,1.1c1,0.6,2.1,1.2,3.1,1.8
			c0.4,0.2,0.7,0.2,1,0c1.7-1,3.4-2,5.1-3c2.2-1.3,4.3-2.5,6.5-3.7c0.1-0.1,0.4-0.1,0.5-0.1C22.7,0.8,23,1.1,23.6,1.3z"/>
	</g>
</svg>
