<svg id="visa" xmlns="http://www.w3.org/2000/svg" xmlns:xlink="http://www.w3.org/1999/xlink" viewBox="0 0 48.5 23.4">
	<g>
		<polygon points="20.2,4.2 16.9,19.4 20.9,19.4 24.1,4.2 	"/>
		<path d="M14.4,4.2l-4.1,10.3L8.6,5.7c-0.2-1-1-1.5-1.8-1.5H0.1L0,4.6c1.4,0.3,2.9,0.8,3.9,1.3c0.6,0.3,0.7,0.6,0.9,1.3l3.1,12.1
			h4.2l6.4-15.2L14.4,4.2L14.4,4.2z"/>
		<path d="M45.5,4.2h-3.4c-0.8,0-1.4,0.4-1.7,1.1l-5.9,14.1h4.1l0.8-2.3h5l0.5,2.3h3.6L45.5,4.2z M40.7,14l2.1-5.7L44,14H40.7z"/>
		<path d="M29.3,8.4c0-0.5,0.5-1.1,1.7-1.3C31.6,7,33.1,7,34.9,7.8l0.7-3.2c-0.9-0.3-2.2-0.7-3.7-0.7c-3.9,0-6.6,2.1-6.6,5
			c0,2.2,2,3.4,3.4,4.1c1.5,0.7,2,1.2,2,1.9c0,1-1.2,1.5-2.4,1.5c-2,0-3.1-0.5-4-1l-0.7,3.3c0.9,0.4,2.6,0.8,4.4,0.8
			c4.1,0,6.8-2,6.8-5.2C34.8,10.5,29.2,10.2,29.3,8.4z"/>
	</g>
</svg>
